# xmcd
# Copyright (C) 1995-1998 Ti Kan
#
# Track frame offsets:
#       150
#       18991
#       35593
#       52493
#       68688
#       86045
#       102767
#       121829
#       140916
#       161192
#       178373
#       196239
#
# Disc length: 2888 seconds
#
# Revision: 0
# Processed by: cddbd v1.5.2PL0 Copyright (c) Steve Scherf et al.
# Submitted via: CD-Import v1.0
#
DISCID=b20b460c
DTITLE=Mother's Pride - When Love Comes Knocking
DYEAR=2009
DGENRE=
TTITLE0=Desire
TTITLE1=I Call Her Melody
TTITLE2=Count Your Angels
TTITLE3=Power Of Love
TTITLE4=Stumble In Sidewards
TTITLE5=I'ts All To Beautiful
TTITLE6=When Love Comes Knocking
TTITLE7=It Took Such A Long Time
TTITLE8=Heartbreaker
TTITLE9=Believer Under Grace
TTITLE10=Next To My League
TTITLE11=Trouble
EXTD=
EXTT0=
EXTT1=
EXTT2=
EXTT3=
EXTT4=
EXTT5=
EXTT6=
EXTT7=
EXTT8=
EXTT9=
EXTT10=
EXTT11=
PLAYORDER=
